#!OML:ASF H:\Pregnant\Project 1\Capture day 1\Session 1\femalepreg.ASF
:FULLY-SPECIFIED
:DEGREES
1062
root 8.16233 0.973172 26.5014 108.996 -49.22 -207.635
lowerback 8.04417 -3.95584 -10.4878
upperback 5.08346 -7.19626 8.65063
thorax 3.41502 -4.77619 15.8603
lowerneck -20.1846 4.8691 6.20752
upperneck 32.8746 7.50555 -8.41542
head 15.5722 2.30059 -3.32892
rclavicle -2.8625e-014 7.95139e-016
rhumerus -2.62638 9.96379 -57.6701
rradius 58.2394
rwrist -3.88353
rhand -5.70448 -14.3308
rfingers 7.12502
rthumb 20.1164 -43.3093
lclavicle -2.8625e-014 7.95139e-016
lhumerus -113.67 -25.5188 125.519
lradius 77.3992
lwrist 86.1047
lhand -51.4402 397.866
lfingers 7.12502
lthumb -23.9708 66.3893
rfemur -58.3489 6.93952 -0.616896
rtibia 104.122
rfoot 37.586 13.9431
rtoes 4.03716
lfemur -33.7707 342.408 332.095
ltibia 86.5706
lfoot 22.901 -376.567
ltoes -55.7986
1063
root 8.15515 0.970247 26.4998 108.871 -49.3897 -207.502
lowerback 7.90326 -3.9094 -10.3944
upperback 5.03607 -7.0565 8.44178
thorax 3.34622 -4.65962 15.536
lowerneck -20.0691 4.81214 6.27239
upperneck 32.9923 7.34004 -8.25996
head 15.5776 2.25963 -3.31237
rclavicle 1.90833e-014 -1.70557e-013
rhumerus -2.6937 9.54263 -57.8071
rradius 58.0166
rwrist -3.6758
rhand -5.93996 -14.3
rfingers 7.12502
rthumb 19.8901 -43.3022
lclavicle 1.90833e-014 -1.70557e-013
lhumerus -113.294 -26.6027 124.999
lradius 77.824
lwrist 86.3295
lhand -50.436 398.616
lfingers 7.12502
lthumb -23.0075 67.263
rfemur -58.2371 6.94357 -0.759284
rtibia 104.11
rfoot 37.7449 14.1302
rtoes 3.48344
lfemur -33.7545 342.395 332.015
ltibia 86.493
lfoot 23.0506 -376.572
ltoes -55.8762
1064
root 8.14784 0.967132 26.4981 108.735 -49.5603 -207.356
lowerback 7.75749 -3.8619 -10.2746
upperback 4.97283 -6.90731 8.19835
thorax 3.25266 -4.53101 15.1561
lowerneck -19.8498 4.76086 6.39132
upperneck 33.0914 7.15671 -8.08411
head 15.5497 2.22358 -3.29976
rclavicle -1.04958e-013 2.22639e-014
rhumerus -2.8051 9.11137 -57.9818
rradius 57.7432
rwrist -3.46405
rhand -6.1699 -14.25
rfingers 7.12502
rthumb 19.669 -43.2749
lclavicle -1.04958e-013 2.22639e-014
lhumerus -112.939 -27.7257 124.425
lradius 78.3014
lwrist 86.506
lhand -49.4073 399.331
lfingers 7.12502
lthumb -22.0201 68.0974
rfemur -58.1248 6.94181 -0.901206
rtibia 104.104
rfoot 37.8679 14.3078
rtoes 2.91276
lfemur -33.7425 342.377 331.938
ltibia 86.4219
lfoot 23.2035 -376.573
ltoes -55.9372
1065
root 8.14045 0.963972 26.4966 108.584 -49.7341 -207.192
lowerback 7.61032 -3.81921 -10.1631
upperback 4.91168 -6.76761 7.94535
thorax 3.16775 -4.40965 14.7721
lowerneck -19.5788 4.73914 6.55396
upperneck 33.1596 7.0054 -7.90981
head 15.5008 2.20868 -3.28782
rclavicle 7.95139e-014 -2.98177e-014
rhumerus -2.93659 8.65484 -58.1785
rradius 57.4474
rwrist -3.21383
rhand -6.36325 -14.1661
rfingers 7.12502
rthumb 19.4831 -43.21
lclavicle 7.95139e-014 -2.98177e-014
lhumerus -112.458 -28.8312 123.751
lradius 78.781
lwrist 86.6246
lhand -48.402 400.057
lfingers 7.12502
lthumb -21.0547 68.9337
rfemur -58.0083 6.9327 -1.04554
rtibia 104.101
rfoot 37.9606 14.4555
rtoes 2.38952
lfemur -33.7337 342.352 331.864
ltibia 86.3569
lfoot 23.3632 -376.572
ltoes -55.9827
1066
root 8.13325 0.960755 26.4955 108.424 -49.9047 -207.011
lowerback 7.44101 -3.78352 -10.0484
upperback 4.87385 -6.63994 7.67946
thorax 3.12476 -4.30059 14.3697
lowerneck -19.3387 4.7355 6.76883
upperneck 33.2045 6.87068 -7.75693
head 15.4536 2.20561 -3.28936
rclavicle 7.31528e-014 8.74653e-015
rhumerus -3.02158 8.21535 -58.3824
rradius 57.1347
rwrist -2.99223
rhand -6.53884 -14.1025
rfingers 7.12502
rthumb 19.3143 -43.1634
lclavicle 7.31528e-014 8.74653e-015
lhumerus -111.794 -29.9306 122.93
lradius 79.2529
lwrist 86.7281
lhand -47.4537 400.735
lfingers 7.12502
lthumb -20.1434 69.7109
rfemur -57.8949 6.91755 -1.18491
rtibia 104.105
rfoot 38.0164 14.6022
rtoes 1.87763
lfemur -33.7345 342.326 331.8
ltibia 86.2982
lfoot 23.5338 -376.578
ltoes -56.0066
